<?xml version="1.0" encoding="utf-8"?>
<!-- Generator: Adobe Illustrator 25.0.0, SVG Export Plug-In . SVG Version: 6.00 Build 0)  -->
<svg version="1.1" id="Calque_1" xmlns="http://www.w3.org/2000/svg" xmlns:xlink="http://www.w3.org/1999/xlink" x="0px" y="0px"
	 viewBox="0 0 205 75" style="enable-background:new 0 0 205 75;" xml:space="preserve">
<style type="text/css">
	.st0{fill:url(#SVGID_1_);}
	.st1{fill:url(#SVGID_2_);}
	.st2{fill:url(#SVGID_3_);}
	.st3{fill:#4D008C;}
	.st4{fill:#00CE7C;}
	.st5{fill:url(#SVGID_4_);}
	.st6{fill:url(#SVGID_5_);}
	.st7{fill:url(#SVGID_6_);}
	.st8{fill:url(#SVGID_7_);}
	.st9{fill:url(#SVGID_8_);}
	.st10{fill:url(#SVGID_9_);}
	.st11{fill:url(#SVGID_10_);}
	.st12{fill:url(#SVGID_11_);}
	.st13{fill:url(#SVGID_12_);}
	.st14{fill:url(#SVGID_13_);}
	.st15{fill:url(#SVGID_14_);}
	.st16{fill:url(#SVGID_15_);}
	.st17{fill:url(#SVGID_16_);}
	.st18{fill:url(#SVGID_17_);}
	.st19{fill:url(#SVGID_18_);}
	.st20{fill:url(#SVGID_19_);}
	.st21{fill:url(#SVGID_20_);}
	.st22{fill:url(#SVGID_21_);}
	.st23{fill:url(#SVGID_22_);}
</style>
<g>
	
		<linearGradient id="SVGID_1_" gradientUnits="userSpaceOnUse" x1="2678.3403" y1="8488.3633" x2="2672.7166" y2="8484.8457" gradientTransform="matrix(-0.4616 0.8871 -0.8871 -0.4616 8935.9854 1573.1514)">
		<stop  offset="0.2378" style="stop-color:#7488B7"/>
		<stop  offset="1" style="stop-color:#696AA9"/>
	</linearGradient>
	<path class="st0" d="M169.4,29.9c0.1-0.2,0.2-0.3,0.4-0.4l4.6-2.6c0.5-0.3,1-0.1,1.3,0.3c0.3,0.4,0.1,1-0.4,1.3l-4.6,2.6
		c-0.5,0.3-1,0.1-1.3-0.3C169.3,30.6,169.3,30.2,169.4,29.9z"/>
	
		<linearGradient id="SVGID_2_" gradientUnits="userSpaceOnUse" x1="2673.0354" y1="8484.9268" x2="2678.3142" y2="8488.4727" gradientTransform="matrix(-0.4616 0.8871 -0.8871 -0.4616 8935.9854 1573.1514)">
		<stop  offset="0.2378" style="stop-color:#807EB2"/>
		<stop  offset="0.5625" style="stop-color:#7287BD"/>
	</linearGradient>
	<path class="st1" d="M169.4,29.9c0.1-0.2,0.2-0.3,0.4-0.4l4.6-2.6c0.5-0.3,1-0.1,1.3,0.3c0.3,0.4,0.1,1-0.4,1.3l-4.6,2.6
		c-0.5,0.3-1,0.1-1.3-0.3C169.3,30.6,169.3,30.2,169.4,29.9z"/>
	
		<linearGradient id="SVGID_3_" gradientUnits="userSpaceOnUse" x1="-981.3061" y1="1462.8572" x2="-975.5343" y2="1466.4879" gradientTransform="matrix(0.4616 0.8871 0.8871 -0.4616 -646.3855 1573.1514)">
		<stop  offset="5.095780e-02" style="stop-color:#739483"/>
		<stop  offset="0.9451" style="stop-color:#49B166"/>
	</linearGradient>
	<path class="st2" d="M204.4,29.9c-0.1-0.2-0.2-0.3-0.4-0.4l-4.6-2.6c-0.5-0.3-1-0.1-1.3,0.3c-0.3,0.4-0.1,1,0.4,1.3l4.6,2.6
		c0.5,0.3,1,0.1,1.3-0.3C204.5,30.6,204.5,30.2,204.4,29.9z"/>
	<path class="st3" d="M8.1,34.9c4.1,0,7.3,1.1,9.5,3.2c2.2,2.1,3.3,5.2,3.3,9.3c0,4.2-1.1,7.4-3.3,9.6c-2.2,2.2-5.4,3.3-9.5,3.3H0
		V34.9H8.1z M8.3,58.5c3.4,0,6.1-1,7.9-2.9c1.8-1.9,2.8-4.7,2.8-8.2c0-3.4-0.9-6.1-2.8-7.9c-1.8-1.9-4.5-2.8-7.9-2.8H2v21.9H8.3z"/>
	<path class="st3" d="M33,34.5c2.4,0,4.4,0.5,6,1.4c1.6,0.9,2.9,2.3,3.7,4.2l-1.6,1.2c-0.8-1.8-1.8-3.1-3.2-3.9
		c-1.4-0.8-3.1-1.2-5.1-1.2c-1.5,0-2.8,0.2-3.9,0.7c-1.1,0.5-1.9,1.1-2.4,1.9c-0.5,0.8-0.8,1.7-0.8,2.6c0,1.2,0.4,2.1,1.2,2.9
		s2.2,1.4,4.3,1.9l5,1.1c2.5,0.5,4.3,1.3,5.3,2.3c1,1,1.5,2.3,1.5,3.9c0,1.4-0.4,2.6-1.2,3.7c-0.8,1.1-1.9,1.9-3.4,2.5
		c-1.4,0.6-3.1,0.9-5,0.9c-1.8,0-3.5-0.3-4.9-0.8c-1.4-0.5-2.7-1.2-3.7-2.1c-1-0.9-1.7-2-2.2-3.3l1.7-1.3c0.4,1.2,1,2.2,1.8,3.1
		c0.8,0.9,1.9,1.5,3.1,1.9c1.2,0.4,2.6,0.7,4.2,0.7c1.5,0,2.8-0.2,3.9-0.6c1.1-0.4,2-1,2.7-1.8c0.6-0.8,1-1.7,1-2.8
		c0-1.1-0.4-2-1.2-2.7c-0.8-0.7-2.1-1.3-4.1-1.7l-5.3-1.2c-1.6-0.4-3-0.8-4-1.4c-1-0.6-1.8-1.3-2.2-2.1c-0.5-0.8-0.7-1.8-0.7-2.8
		c0-1.3,0.4-2.5,1.1-3.6c0.8-1.1,1.8-2,3.2-2.6C29.5,34.8,31.1,34.5,33,34.5z"/>
	<path class="st3" d="M81.3,34.5c2.3,0,4.3,0.4,6,1.3c1.7,0.9,3.1,2.1,4.3,3.8l-2.8,2.7c-1-1.5-2.1-2.6-3.3-3.2
		c-1.2-0.7-2.7-1-4.4-1c-1.2,0-2.3,0.2-3.1,0.5c-0.8,0.3-1.4,0.8-1.8,1.3c-0.4,0.6-0.6,1.2-0.6,1.9c0,0.8,0.3,1.5,0.8,2.1
		s1.6,1.1,3.1,1.4l5.2,1.2c2.5,0.5,4.3,1.4,5.3,2.5c1,1.1,1.6,2.5,1.6,4.2c0,1.6-0.4,2.9-1.3,4.1c-0.9,1.2-2.1,2-3.6,2.7
		s-3.3,0.9-5.4,0.9c-1.8,0-3.5-0.2-4.9-0.7c-1.5-0.5-2.7-1.1-3.8-1.9c-1.1-0.8-2-1.7-2.7-2.7l2.9-2.8c0.5,0.9,1.2,1.7,2.1,2.4
		c0.8,0.7,1.8,1.3,2.9,1.6c1.1,0.4,2.3,0.6,3.7,0.6c1.2,0,2.2-0.1,3.1-0.4c0.9-0.3,1.5-0.7,2-1.3c0.5-0.6,0.7-1.2,0.7-2
		c0-0.7-0.3-1.4-0.8-2c-0.5-0.6-1.5-1-2.8-1.3l-5.7-1.3c-1.6-0.3-2.9-0.8-3.9-1.4c-1-0.6-1.8-1.4-2.3-2.3c-0.5-0.9-0.7-1.9-0.7-3
		c0-1.4,0.4-2.7,1.2-3.9c0.8-1.2,1.9-2.1,3.5-2.8C77.4,34.8,79.2,34.5,81.3,34.5z"/>
	<polygon class="st3" points="109.2,60.2 114.1,60.2 106.1,48.5 113.6,41 108.6,41 99.3,50.4 99.3,32.3 95.2,32.3 95.2,60.2 
		99.3,60.2 99.3,55.2 103.2,51.2 	"/>
	<path class="st3" d="M120,37.8c-0.9,0-1.6-0.2-2.1-0.7c-0.5-0.4-0.7-1.1-0.7-1.9s0.2-1.4,0.7-1.9c0.5-0.4,1.2-0.7,2.1-0.7
		c0.9,0,1.6,0.2,2.1,0.7c0.5,0.4,0.7,1.1,0.7,1.9s-0.2,1.5-0.7,1.9C121.6,37.6,120.9,37.8,120,37.8z M122.1,41v19.2h-4.2V41H122.1z"
		/>
	<path class="st3" d="M132.7,32.3v22.5c0,0.9,0.2,1.6,0.5,2c0.3,0.4,0.9,0.5,1.7,0.5c0.5,0,0.9,0,1.2-0.1c0.3-0.1,0.7-0.2,1.2-0.4
		l-0.5,3.1c-0.4,0.2-1,0.4-1.5,0.5c-0.6,0.1-1.1,0.2-1.7,0.2c-1.7,0-3-0.4-3.8-1.3c-0.8-0.9-1.2-2.3-1.2-4.1V32.3H132.7z"/>
	<path class="st3" d="M144.9,32.3v22.5c0,0.9,0.2,1.6,0.5,2c0.3,0.4,0.9,0.5,1.7,0.5c0.5,0,0.9,0,1.2-0.1c0.3-0.1,0.7-0.2,1.2-0.4
		L149,60c-0.4,0.2-1,0.4-1.5,0.5c-0.6,0.1-1.1,0.2-1.7,0.2c-1.7,0-3-0.4-3.8-1.3c-0.8-0.9-1.2-2.3-1.2-4.1V32.3H144.9z"/>
	<path class="st3" d="M160.4,60.6c-2,0-3.7-0.4-5.4-1.1c-1.6-0.7-2.9-1.8-3.8-3.2l2.9-2.5c0.6,1.1,1.4,1.9,2.5,2.5
		c1.1,0.6,2.4,0.9,3.9,0.9c1.2,0,2.1-0.2,2.9-0.6c0.7-0.4,1.1-1,1.1-1.7c0-0.5-0.2-0.9-0.5-1.3c-0.3-0.4-0.9-0.7-1.9-0.9L158,52
		c-2.1-0.4-3.6-1.1-4.5-2s-1.3-2.1-1.3-3.5c0-1.1,0.3-2,0.9-2.9s1.5-1.6,2.8-2.2c1.2-0.6,2.7-0.8,4.4-0.8c2,0,3.6,0.3,5,1
		c1.4,0.7,2.4,1.6,3.2,2.9l-2.9,2.4c-0.5-1-1.2-1.8-2.2-2.3c-1-0.5-2-0.8-3-0.8c-0.8,0-1.5,0.1-2.1,0.3c-0.6,0.2-1.1,0.5-1.4,0.8
		c-0.3,0.4-0.5,0.8-0.5,1.3c0,0.5,0.2,1,0.6,1.3c0.4,0.4,1.1,0.7,2.1,0.9l4.5,0.9c1.9,0.4,3.2,1,4,1.8c0.8,0.9,1.2,1.9,1.2,3.1
		c0,1.2-0.3,2.3-1,3.3c-0.7,0.9-1.6,1.7-2.8,2.2C163.6,60.4,162.1,60.6,160.4,60.6z"/>
	<path class="st3" d="M67.9,57.9h-4.4V31.1L44.5,59.6h17.2v10.8l1.9-0.5V59.6h7.6c-1.1-0.4-2.1-0.9-3-1.6C68.1,58,68,57.9,67.9,57.9
		z M61.7,57.9H47.8l13.9-20.6V57.9z"/>
	<g>
		<path class="st4" d="M71.1,72.8v-8.2h3c2.4,0,4.1,1.5,4.1,4.1c0,2.6-1.8,4.1-4.1,4.1H71.1z M74,71.3c1.4,0,2.5-0.8,2.5-2.6
			c0-1.8-1.1-2.6-2.5-2.6h-1.3v5.2H74z"/>
		<path class="st4" d="M80.9,69.5l1.4-0.2c0.3,0,0.4-0.2,0.4-0.4c0-0.4-0.3-0.7-1-0.7c-0.7,0-1.1,0.4-1.1,0.9l-1.4-0.3
			c0.1-0.9,0.9-1.9,2.5-1.9c1.8,0,2.5,1,2.5,2.2v2.8c0,0.3,0,0.7,0.1,0.9h-1.4c0-0.2-0.1-0.5-0.1-0.7C82.5,72.6,82,73,81.1,73
			c-1.2,0-2-0.8-2-1.7C79.1,70.2,79.9,69.7,80.9,69.5z M82.7,70.5v-0.3l-1.3,0.2c-0.4,0.1-0.7,0.3-0.7,0.7c0,0.3,0.2,0.7,0.8,0.7
			C82.1,71.8,82.7,71.5,82.7,70.5z"/>
		<path class="st4" d="M87.7,67.1h1.2v1.4h-1.2v2.4c0,0.5,0.2,0.7,0.7,0.7c0.2,0,0.4,0,0.5,0v1.3c-0.1,0.1-0.4,0.1-0.9,0.1
			c-1.1,0-1.8-0.7-1.8-1.8v-2.7h-1v-1.4h0.3c0.6,0,0.9-0.4,0.9-0.9v-0.8h1.4V67.1z"/>
		<path class="st4" d="M91.6,69.5l1.4-0.2c0.3,0,0.4-0.2,0.4-0.4c0-0.4-0.3-0.7-1-0.7c-0.7,0-1.1,0.4-1.1,0.9L90,68.8
			c0.1-0.9,0.9-1.9,2.5-1.9c1.8,0,2.5,1,2.5,2.2v2.8c0,0.3,0,0.7,0.1,0.9h-1.4c0-0.2-0.1-0.5-0.1-0.7c-0.3,0.5-0.8,0.8-1.7,0.8
			c-1.2,0-2-0.8-2-1.7C89.9,70.2,90.6,69.7,91.6,69.5z M93.5,70.5v-0.3l-1.3,0.2c-0.4,0.1-0.7,0.3-0.7,0.7c0,0.3,0.2,0.7,0.8,0.7
			C92.9,71.8,93.5,71.5,93.5,70.5z"/>
		<path class="st4" d="M103.7,67c-0.1-0.5-0.5-1.2-1.5-1.2c-0.8,0-1.3,0.5-1.3,1c0,0.5,0.3,0.8,0.9,0.9L103,68
			c1.5,0.3,2.3,1.3,2.3,2.4c0,1.3-1.1,2.5-3,2.5c-2.2,0-3.2-1.4-3.3-2.6l1.5-0.4c0.1,0.8,0.6,1.5,1.8,1.5c0.9,0,1.4-0.4,1.4-1
			c0-0.5-0.4-0.8-1-1l-1.2-0.2c-1.3-0.3-2.2-1.1-2.2-2.4c0-1.5,1.3-2.6,2.9-2.6c2,0,2.8,1.2,3,2.1L103.7,67z"/>
		<path class="st4" d="M106.4,75v-7.9h1.5v0.7c0.3-0.4,0.9-0.8,1.8-0.8c1.7,0,2.7,1.3,2.7,3c0,1.7-1.1,3-2.7,3
			c-0.8,0-1.4-0.3-1.7-0.7V75H106.4z M109.4,68.4c-0.8,0-1.4,0.6-1.4,1.6c0,1,0.6,1.6,1.4,1.6c0.8,0,1.4-0.6,1.4-1.6
			C110.8,68.9,110.2,68.4,109.4,68.4z"/>
		<path class="st4" d="M115,69.5l1.4-0.2c0.3,0,0.4-0.2,0.4-0.4c0-0.4-0.3-0.7-1-0.7c-0.7,0-1.1,0.4-1.1,0.9l-1.4-0.3
			c0.1-0.9,0.9-1.9,2.5-1.9c1.8,0,2.5,1,2.5,2.2v2.8c0,0.3,0,0.7,0.1,0.9H117c0-0.2-0.1-0.5-0.1-0.7c-0.3,0.5-0.8,0.8-1.7,0.8
			c-1.2,0-2-0.8-2-1.7C113.2,70.2,114,69.7,115,69.5z M116.8,70.5v-0.3l-1.3,0.2c-0.4,0.1-0.7,0.3-0.7,0.7c0,0.3,0.2,0.7,0.8,0.7
			C116.2,71.8,116.8,71.5,116.8,70.5z"/>
		<path class="st4" d="M121,69.9c0,1,0.7,1.6,1.5,1.6c0.8,0,1.2-0.5,1.3-1l1.4,0.5c-0.3,0.9-1.2,1.9-2.7,1.9c-1.7,0-3-1.3-3-3
			c0-1.8,1.3-3,3-3c1.6,0,2.5,1,2.7,1.9l-1.4,0.5c-0.1-0.5-0.5-1-1.3-1C121.7,68.4,121,68.9,121,69.9z"/>
		<path class="st4" d="M131.5,71.2c-0.3,1-1.2,1.8-2.6,1.8c-1.6,0-3-1.1-3-3c0-1.8,1.4-3,2.8-3c1.8,0,2.9,1.1,2.9,3
			c0,0.2,0,0.5,0,0.5h-4.1c0,0.8,0.7,1.3,1.5,1.3c0.7,0,1.1-0.4,1.3-0.9L131.5,71.2z M130,69.3c0-0.6-0.4-1.1-1.3-1.1
			c-0.8,0-1.3,0.6-1.3,1.1H130z"/>
		<path class="st4" d="M137.6,66.5v0.6h1.3v1.3h-1.3v4.4H136v-4.4h-1v-1.3h1v-0.6c0-1.3,0.8-2.1,2.1-2.1c0.3,0,0.6,0.1,0.8,0.1v1.3
			c-0.1,0-0.2-0.1-0.5-0.1C138,65.7,137.6,65.8,137.6,66.5z"/>
		<path class="st4" d="M145.4,69.9c0,1.7-1.3,3-3,3s-3-1.3-3-3c0-1.8,1.3-3,3-3S145.4,68.2,145.4,69.9z M143.8,69.9
			c0-1.1-0.7-1.6-1.5-1.6s-1.5,0.5-1.5,1.6c0,1.1,0.7,1.6,1.5,1.6S143.8,71,143.8,69.9z"/>
		<path class="st4" d="M150.2,68.6c-0.2,0-0.3,0-0.5,0c-0.8,0-1.5,0.4-1.5,1.6v2.6h-1.6v-5.7h1.5v0.8c0.4-0.8,1.2-0.9,1.6-0.9
			c0.1,0,0.2,0,0.4,0V68.6z"/>
		<path class="st4" d="M158.4,67c-0.1-0.5-0.5-1.2-1.5-1.2c-0.8,0-1.3,0.5-1.3,1c0,0.5,0.3,0.8,0.9,0.9l1.2,0.2
			c1.5,0.3,2.3,1.3,2.3,2.4c0,1.3-1.1,2.5-3,2.5c-2.2,0-3.2-1.4-3.3-2.6l1.5-0.4c0.1,0.8,0.6,1.5,1.8,1.5c0.9,0,1.4-0.4,1.4-1
			c0-0.5-0.4-0.8-1-1l-1.2-0.2c-1.3-0.3-2.2-1.1-2.2-2.4c0-1.5,1.3-2.6,2.9-2.6c2,0,2.8,1.2,3,2.1L158.4,67z"/>
		<path class="st4" d="M164.5,69.5l2.4,3.3h-1.9l-1.5-2.2l-0.6,0.7v1.5h-1.6v-8.4h1.6v4.8l2-2.1h2L164.5,69.5z"/>
		<path class="st4" d="M168.5,64.3c0.5,0,1,0.4,1,1c0,0.5-0.4,0.9-1,0.9c-0.5,0-1-0.4-1-0.9C167.6,64.7,168,64.3,168.5,64.3z
			 M167.8,72.8v-5.7h1.6v5.7H167.8z"/>
		<path class="st4" d="M171,72.8v-8.4h1.6v8.4H171z"/>
		<path class="st4" d="M174.2,72.8v-8.4h1.6v8.4H174.2z"/>
		<path class="st4" d="M178.3,70.9c0,0.5,0.4,0.9,1.1,0.9c0.5,0,0.8-0.3,0.8-0.6c0-0.3-0.2-0.5-0.6-0.6l-0.8-0.2
			c-1.1-0.2-1.6-0.9-1.6-1.7c0-1,0.9-1.9,2.2-1.9c1.6,0,2.2,1,2.3,1.6l-1.3,0.3c0-0.3-0.3-0.8-1-0.8c-0.4,0-0.7,0.2-0.7,0.6
			c0,0.3,0.2,0.5,0.5,0.5l0.8,0.2c1.1,0.2,1.7,0.9,1.7,1.7c0,0.9-0.7,1.9-2.2,1.9c-1.7,0-2.3-1.1-2.4-1.8L178.3,70.9z"/>
	</g>
	<linearGradient id="SVGID_4_" gradientUnits="userSpaceOnUse" x1="169.9133" y1="31.7938" x2="169.4019" y2="10.0983">
		<stop  offset="9.557530e-02" style="stop-color:#7287BD"/>
		<stop  offset="0.9274" style="stop-color:#955D9F"/>
	</linearGradient>
	<path class="st5" d="M169.7,31.8c-0.6,0-1.1-0.5-1.1-1.1V11.2c0-0.6,0.5-1.1,1.1-1.1c0.6,0,1.1,0.5,1.1,1.1v19.6
		C170.7,31.3,170.3,31.8,169.7,31.8z"/>
	<linearGradient id="SVGID_5_" gradientUnits="userSpaceOnUse" x1="204.0874" y1="10.0338" x2="204.0874" y2="31.7329">
		<stop  offset="9.560733e-02" style="stop-color:#31B294"/>
		<stop  offset="0.9687" style="stop-color:#49B167"/>
	</linearGradient>
	<path class="st6" d="M204.1,31.7c-0.6,0-1.1-0.5-1.1-1.1V11.1c0-0.6,0.5-1.1,1.1-1.1c0.6,0,1.1,0.5,1.1,1.1v19.6
		C205.2,31.3,204.7,31.7,204.1,31.7z"/>
	<linearGradient id="SVGID_6_" gradientUnits="userSpaceOnUse" x1="168.8047" y1="11.8283" x2="187.7262" y2="0.7286">
		<stop  offset="8.773009e-02" style="stop-color:#955D9F"/>
		<stop  offset="0.8817" style="stop-color:#11A5DD"/>
	</linearGradient>
	<path class="st7" d="M169.7,12.2c-0.4,0-0.7-0.2-0.9-0.5c-0.3-0.5-0.1-1.2,0.4-1.5l17.2-9.8c0.5-0.3,1.2-0.1,1.5,0.4
		c0.3,0.5,0.1,1.2-0.4,1.5l-17.2,9.8C170,12.2,169.8,12.2,169.7,12.2z"/>
	<linearGradient id="SVGID_7_" gradientUnits="userSpaceOnUse" x1="169.9119" y1="20.0696" x2="188.0211" y2="17.8039">
		<stop  offset="2.397346e-02" style="stop-color:#924B96;stop-opacity:0"/>
		<stop  offset="0.1123" style="stop-color:#8B4092"/>
	</linearGradient>
	<polygon class="st8" points="170.7,12.1 170.7,29 168.6,15.1 168.6,11.2 	"/>
	
		<linearGradient id="SVGID_8_" gradientUnits="userSpaceOnUse" x1="8085.7729" y1="20.0696" x2="8103.8823" y2="17.8039" gradientTransform="matrix(-1 0 0 1 8289.5996 0)">
		<stop  offset="6.918572e-03" style="stop-color:#5BAF9C;stop-opacity:0"/>
		<stop  offset="7.579542e-02" style="stop-color:#208D80"/>
	</linearGradient>
	<polygon class="st9" points="203,12.1 203,29 205.2,15.1 205.2,11.2 	"/>
	
		<linearGradient id="SVGID_9_" gradientUnits="userSpaceOnUse" x1="3403.5645" y1="-5445.4229" x2="3421.3818" y2="-5447.6519" gradientTransform="matrix(0.4966 0.868 0.868 -0.4966 3213.7175 -5651.4849)">
		<stop  offset="2.397346e-02" style="stop-color:#924B96;stop-opacity:0"/>
		<stop  offset="0.1143" style="stop-color:#8B3F91"/>
	</linearGradient>
	<polygon class="st10" points="170.9,11.7 185.8,3.3 172.5,8.3 169,10.3 	"/>
	<linearGradient id="SVGID_10_" gradientUnits="userSpaceOnUse" x1="186.2278" y1="0.406" x2="204.7328" y2="12.0156">
		<stop  offset="5.761945e-02" style="stop-color:#11A5DD"/>
		<stop  offset="1" style="stop-color:#31B294"/>
	</linearGradient>
	<path class="st11" d="M204.1,12.1c-0.2,0-0.4,0-0.5-0.1l-17.2-9.6c-0.5-0.3-0.7-0.9-0.4-1.5c0.3-0.5,1-0.7,1.5-0.4l17.2,9.6
		c0.5,0.3,0.7,0.9,0.4,1.5C204.8,11.9,204.5,12.1,204.1,12.1z"/>
	
		<linearGradient id="SVGID_11_" gradientUnits="userSpaceOnUse" x1="7354.458" y1="1379.6519" x2="7372.2749" y2="1377.4226" gradientTransform="matrix(-0.4993 0.8664 -0.8664 -0.4993 5062.9697 -5676.7974)">
		<stop  offset="1.799663e-02" style="stop-color:#5BAF9C;stop-opacity:0"/>
		<stop  offset="7.579542e-02" style="stop-color:#208D80"/>
	</linearGradient>
	<polygon class="st12" points="202.2,11.3 187.3,2.8 200.6,7.9 204.1,9.9 	"/>
	<linearGradient id="SVGID_12_" gradientUnits="userSpaceOnUse" x1="187.7664" y1="21.4044" x2="168.7644" y2="10.5509">
		<stop  offset="0.1978" style="stop-color:#0CA6DE"/>
		<stop  offset="0.9274" style="stop-color:#955D9F"/>
	</linearGradient>
	<path class="st13" d="M186.9,21.9c-0.2,0-0.4,0-0.5-0.1l-17.2-9.6c-0.5-0.3-0.7-0.9-0.4-1.5c0.3-0.5,1-0.7,1.5-0.4l17.2,9.6
		c0.5,0.3,0.7,0.9,0.4,1.5C187.6,21.7,187.2,21.9,186.9,21.9z"/>
	
		<linearGradient id="SVGID_13_" gradientUnits="userSpaceOnUse" x1="186.1925" y1="-2261.9456" x2="204.7681" y2="-2250.2917" gradientTransform="matrix(1 0 0 -1 0 -2240.2087)">
		<stop  offset="5.761945e-02" style="stop-color:#11A5DD"/>
		<stop  offset="1" style="stop-color:#31B294"/>
	</linearGradient>
	<path class="st14" d="M186.9,21.9c-0.4,0-0.7-0.2-0.9-0.5c-0.3-0.5-0.1-1.2,0.4-1.5l17.2-9.8c0.5-0.3,1.2-0.1,1.5,0.4
		c0.3,0.5,0.1,1.2-0.4,1.5l-17.2,9.8C187.2,21.8,187.1,21.9,186.9,21.9z"/>
	<linearGradient id="SVGID_14_" gradientUnits="userSpaceOnUse" x1="168.7747" y1="30.1138" x2="187.7561" y2="41.1467">
		<stop  offset="5.348002e-02" style="stop-color:#7287BD"/>
		<stop  offset="0.6103" style="stop-color:#2FB299"/>
		<stop  offset="1" style="stop-color:#2FB299"/>
	</linearGradient>
	<path class="st15" d="M186.9,41.6c-0.2,0-0.4,0-0.5-0.1l-17.2-9.8c-0.5-0.3-0.7-0.9-0.4-1.5c0.3-0.5,1-0.7,1.5-0.4l17.2,9.8
		c0.5,0.3,0.7,0.9,0.4,1.5C187.6,41.4,187.2,41.6,186.9,41.6z"/>
	
		<linearGradient id="SVGID_15_" gradientUnits="userSpaceOnUse" x1="-978.9149" y1="1465.3564" x2="-976.5799" y2="1462.0101" gradientTransform="matrix(0.4616 0.8871 0.8871 -0.4616 -646.3855 1573.1514)">
		<stop  offset="0.2308" style="stop-color:#3DB071;stop-opacity:0"/>
		<stop  offset="0.4341" style="stop-color:#208046"/>
	</linearGradient>
	<path class="st16" d="M204.4,29.9c-0.1-0.2-0.2-0.3-0.4-0.4l-4.6-2.6c-0.5-0.3-1-0.1-1.3,0.3c-0.3,0.4-0.1,1,0.4,1.3l4.6,2.6
		c0.5,0.3,1,0.1,1.3-0.3C204.5,30.6,204.5,30.2,204.4,29.9z"/>
	<linearGradient id="SVGID_16_" gradientUnits="userSpaceOnUse" x1="185.9534" y1="41.0565" x2="205.0298" y2="30.1568">
		<stop  offset="0" style="stop-color:#2FB299"/>
		<stop  offset="1" style="stop-color:#49B167"/>
	</linearGradient>
	<path class="st17" d="M186.9,41.6c-0.4,0-0.7-0.2-0.9-0.5c-0.3-0.5-0.1-1.2,0.4-1.5l17.2-9.9c0.5-0.3,1.2-0.1,1.5,0.4
		s0.1,1.2-0.4,1.5l-17.2,9.9C187.3,41.6,187.1,41.6,186.9,41.6z"/>
	
		<linearGradient id="SVGID_17_" gradientUnits="userSpaceOnUse" x1="4992.6875" y1="-5439.0254" x2="5010.8101" y2="-5441.2925" gradientTransform="matrix(-0.5027 -0.8645 0.8645 -0.5027 7406.3789 1617.7401)">
		<stop  offset="1.522029e-02" style="stop-color:#62B085;stop-opacity:0"/>
		<stop  offset="9.128875e-02" style="stop-color:#38978A"/>
	</linearGradient>
	<polygon class="st18" points="187.2,39.1 202.1,30.6 190.9,39.5 187.5,41.4 	"/>
	
		<linearGradient id="SVGID_18_" gradientUnits="userSpaceOnUse" x1="1013.3172" y1="1404.0024" x2="1031.4399" y2="1401.735" gradientTransform="matrix(0.5027 -0.8645 -0.8645 -0.5027 883.3744 1617.7401)">
		<stop  offset="1.522029e-02" style="stop-color:#62B085;stop-opacity:0"/>
		<stop  offset="9.128875e-02" style="stop-color:#38978A"/>
	</linearGradient>
	<polygon class="st19" points="186.6,39.1 171.7,30.6 182.9,39.5 186.3,41.4 	"/>
	<linearGradient id="SVGID_19_" gradientUnits="userSpaceOnUse" x1="186.8704" y1="41.6015" x2="186.8704" y2="19.735">
		<stop  offset="0.115" style="stop-color:#2FB299"/>
		<stop  offset="1" style="stop-color:#04A6DF"/>
	</linearGradient>
	<path class="st20" d="M186.9,41.6c-0.6,0-1.1-0.5-1.1-1.1V20.8c0-0.6,0.5-1.1,1.1-1.1c0.6,0,1.1,0.5,1.1,1.1v19.7
		C188,41.1,187.5,41.6,186.9,41.6z"/>
	<g>
		<g>
			<linearGradient id="SVGID_20_" gradientUnits="userSpaceOnUse" x1="186.8905" y1="0.6251" x2="186.8905" y2="12.6828">
				<stop  offset="0.2244" style="stop-color:#11A5DD"/>
				<stop  offset="1" style="stop-color:#49B167"/>
			</linearGradient>
			<path class="st21" d="M188,6.7h-2.1c0,0,0,0,0,0V1.5c0-0.6,0.5-1.1,1.1-1.1l0,0c0.6,0,1.1,0.5,1.1,1.1L188,6.7
				C188,6.7,188,6.7,188,6.7z"/>
		</g>
	</g>
	<g>
		<g>
			<linearGradient id="SVGID_21_" gradientUnits="userSpaceOnUse" x1="186.8905" y1="1.7612" x2="186.8905" y2="12.7621">
				<stop  offset="0.1983" style="stop-color:#11A5DD"/>
				<stop  offset="1" style="stop-color:#49B167"/>
			</linearGradient>
			<path class="st22" d="M186.9,12.9L186.9,12.9c-0.6,0-1.1-0.5-1.1-1.1V9.4c0,0,0,0,0,0h2.2c0,0,0,0,0,0v2.5
				C188,12.5,187.5,12.9,186.9,12.9z"/>
		</g>
	</g>
	<g>
		<g>
			<linearGradient id="SVGID_22_" gradientUnits="userSpaceOnUse" x1="189.373" y1="0.9645" x2="189.373" y2="12.569">
				<stop  offset="0.1983" style="stop-color:#11A5DD"/>
				<stop  offset="1" style="stop-color:#49B167"/>
			</linearGradient>
			<path class="st23" d="M190.7,9.4h-2.6c-0.1,0-0.1,0-0.1-0.1V6.7c0-0.1,0-0.1,0.1-0.1h2.6c0.1,0,0.1,0,0.1,0.1v2.5
				C190.8,9.3,190.7,9.4,190.7,9.4z"/>
		</g>
	</g>
</g>
</svg>
