<?xml version="1.0" encoding="utf-8"?>
<!-- Generator: Adobe Illustrator 27.0.0, SVG Export Plug-In . SVG Version: 6.00 Build 0)  -->
<svg version="1.1" id="Layer_1" xmlns="http://www.w3.org/2000/svg" xmlns:xlink="http://www.w3.org/1999/xlink" x="0px" y="0px"
	 viewBox="0 0 841.89 595.28" style="enable-background:new 0 0 841.89 595.28;" xml:space="preserve">
<style type="text/css">
	.st0{fill:#FFFFFF;}
</style>
<g>
	<path class="st0" d="M357.35,331.17c0.3-0.57,0.76-1.07,1.36-1.42l16.71-9.53c1.67-0.95,3.8-0.37,4.76,1.3
		c0.95,1.67,0.37,3.8-1.3,4.76l-16.71,9.53c-1.67,0.95-3.8,0.37-4.76-1.3C356.81,333.44,356.83,332.19,357.35,331.17z"/>
	<path class="st0" d="M357.35,331.17c0.3-0.57,0.76-1.07,1.36-1.42l16.71-9.53c1.67-0.95,3.8-0.37,4.76,1.3
		c0.95,1.67,0.37,3.8-1.3,4.76l-16.71,9.53c-1.67,0.95-3.8,0.37-4.76-1.3C356.81,333.44,356.83,332.19,357.35,331.17z"/>
	<path class="st0" d="M485.43,331.17c-0.3-0.57-0.76-1.07-1.36-1.42l-16.71-9.53c-1.67-0.95-3.8-0.37-4.76,1.3
		c-0.95,1.67-0.37,3.8,1.3,4.76l16.71,9.53c1.67,0.95,3.8,0.37,4.76-1.3C485.98,333.44,485.96,332.19,485.43,331.17z"/>
	<path class="st0" d="M358.18,338.08c-2.19,0-3.96-1.77-3.96-3.96v-72.87c0-2.19,1.77-3.96,3.96-3.96s3.96,1.77,3.96,3.96v72.87
		C362.14,336.31,360.36,338.08,358.18,338.08z"/>
	<path class="st0" d="M484.43,337.83c-2.19,0-3.96-1.77-3.96-3.96v-72.84c0-2.19,1.77-3.96,3.96-3.96s3.96,1.77,3.96,3.96v72.84
		C488.39,336.06,486.62,337.83,484.43,337.83z"/>
	<path class="st0" d="M358.18,265.21c-1.37,0-2.7-0.71-3.44-1.99c-1.09-1.9-0.44-4.32,1.46-5.41l63.13-36.31
		c1.9-1.09,4.32-0.44,5.41,1.46c1.09,1.9,0.44,4.32-1.46,5.41l-63.13,36.31C359.53,265.04,358.85,265.21,358.18,265.21z"/>
	<polygon class="st0" points="362.14,264.71 362.14,327.83 354.22,276 354.22,261.25 	"/>
	<polygon class="st0" points="480.45,264.71 480.45,327.83 488.37,276 488.37,261.25 	"/>
	<polygon class="st0" points="362.73,263.2 417.52,231.85 368.6,250.72 355.8,258.04 	"/>
	<path class="st0" d="M484.43,264.71c-0.66,0-1.33-0.17-1.95-0.52l-63.12-35.81c-1.9-1.08-2.57-3.5-1.49-5.4s3.49-2.57,5.4-1.49
		l63.12,35.81c1.9,1.08,2.57,3.5,1.49,5.4C487.15,263.99,485.81,264.71,484.43,264.71z"/>
	<polygon class="st0" points="477.56,261.6 422.87,230.09 471.73,249.1 484.51,256.47 	"/>
	<path class="st0" d="M421.3,301.1c-0.66,0-1.34-0.17-1.95-0.52l-63.13-35.89c-1.9-1.08-2.57-3.5-1.49-5.4
		c1.08-1.9,3.5-2.57,5.4-1.49l63.13,35.89c1.9,1.08,2.57,3.5,1.49,5.4C424.02,300.38,422.68,301.1,421.3,301.1z"/>
	<path class="st0" d="M421.31,301.1c-1.37,0-2.7-0.71-3.43-1.98c-1.09-1.89-0.44-4.32,1.45-5.41l63.12-36.39
		c1.89-1.09,4.31-0.44,5.41,1.45c1.09,1.89,0.44,4.32-1.45,5.41l-63.12,36.39C422.66,300.93,421.98,301.1,421.31,301.1z"/>
	<path class="st0" d="M421.3,374.51c-0.67,0-1.35-0.17-1.98-0.53l-63.13-36.43c-1.89-1.09-2.54-3.51-1.45-5.41
		c1.09-1.89,3.52-2.54,5.41-1.45l63.13,36.43c1.89,1.09,2.54,3.51,1.45,5.41C424,373.8,422.67,374.51,421.3,374.51z"/>
	<path class="st0" d="M485.43,331.17c-0.3-0.57-0.76-1.07-1.36-1.42l-16.71-9.53c-1.67-0.95-3.8-0.37-4.76,1.3
		c-0.95,1.67-0.37,3.8,1.3,4.76l16.71,9.53c1.67,0.95,3.8,0.37,4.76-1.3C485.98,333.44,485.96,332.19,485.43,331.17z"/>
	<path class="st0" d="M421.39,374.56c-1.37,0-2.7-0.71-3.43-1.98c-1.09-1.89-0.44-4.32,1.45-5.41l63.04-36.7
		c1.9-1.09,4.32-0.44,5.41,1.45s0.44,4.31-1.45,5.41l-63.04,36.7C422.75,374.39,422.07,374.56,421.39,374.56z"/>
	<polygon class="st0" points="422.47,365.39 477.04,333.65 436.22,366.55 423.46,373.97 	"/>
	<polygon class="st0" points="420.32,365.39 365.75,333.65 406.57,366.55 419.32,373.97 	"/>
	<path class="st0" d="M421.3,374.56c-2.19,0-3.96-1.77-3.96-3.96v-73.46c0-2.19,1.77-3.96,3.96-3.96c2.19,0,3.96,1.77,3.96,3.96
		v73.46C425.26,372.79,423.48,374.56,421.3,374.56z"/>
	<g>
		<g>
			<path class="st0" d="M425.29,244.85h-7.84c-0.06,0-0.1-0.05-0.1-0.1v-19.59c0-2.22,1.8-4.02,4.02-4.02l0,0
				c2.22,0,4.02,1.8,4.02,4.02v19.59C425.39,244.8,425.35,244.85,425.29,244.85z"/>
		</g>
	</g>
	<g>
		<g>
			<path class="st0" d="M421.37,267.91L421.37,267.91c-2.22,0-4.02-1.8-4.02-4.02v-9.24c0-0.03,0.02-0.06,0.06-0.06h7.94
				c0.03,0,0.06,0.02,0.06,0.06v9.24C425.39,266.11,423.59,267.91,421.37,267.91z"/>
		</g>
	</g>
	<g>
		<g>
			<path class="st0" d="M435.38,254.59h-9.81c-0.1,0-0.18-0.08-0.18-0.18v-9.81c0-0.1,0.08-0.18,0.18-0.18h9.81
				c0.1,0,0.18,0.08,0.18,0.18v9.81C435.55,254.51,435.47,254.59,435.38,254.59z"/>
		</g>
	</g>
</g>
</svg>
