<?xml version="1.0" encoding="utf-8"?>
<!-- Generator: Adobe Illustrator 27.0.0, SVG Export Plug-In . SVG Version: 6.00 Build 0)  -->
<svg version="1.1" id="Layer_1" xmlns="http://www.w3.org/2000/svg" xmlns:xlink="http://www.w3.org/1999/xlink" x="0px" y="0px"
	 viewBox="0 0 841.89 595.28" style="enable-background:new 0 0 841.89 595.28;" xml:space="preserve">
<style type="text/css">
	.st0{fill:url(#SVGID_1_);}
	.st1{fill:url(#SVGID_00000055691413805752891600000007055211194533858211_);}
	.st2{fill:url(#SVGID_00000146464591445702616670000015634275020951179710_);}
	.st3{fill:url(#SVGID_00000066491081958217924050000010969635667958988206_);}
	.st4{fill:url(#SVGID_00000070096245711192489520000009730960886479485314_);}
	.st5{fill:url(#SVGID_00000008854139365411673550000006200115663267023776_);}
	.st6{fill:url(#SVGID_00000170279106270877681800000003082356201557435050_);}
	.st7{fill:url(#SVGID_00000054242161690753817160000017728958075924873344_);}
	.st8{fill:url(#SVGID_00000162342522382169522800000012562842901863579057_);}
	.st9{fill:url(#SVGID_00000133509664610726625410000001461719222634598292_);}
	.st10{fill:url(#SVGID_00000137105490729579424550000009127952092142382266_);}
	.st11{fill:url(#SVGID_00000089575230339501944140000007481736030655661965_);}
	.st12{fill:url(#SVGID_00000042701500034924476980000016013468458326729657_);}
	.st13{fill:url(#SVGID_00000166648991112079899370000006136149669881958550_);}
	.st14{fill:url(#SVGID_00000003805196633353712480000013927115568282380952_);}
	.st15{fill:url(#SVGID_00000066505583606227653830000011487401428472646049_);}
	.st16{fill:url(#SVGID_00000010296062888154779660000010859264835764998800_);}
	.st17{fill:url(#SVGID_00000131358013549975959620000004179347352865659067_);}
	.st18{fill:url(#SVGID_00000113335797268506138160000011041483723475147395_);}
	.st19{fill:url(#SVGID_00000119083141671394404890000001674157840965212545_);}
	.st20{fill:url(#SVGID_00000007425720759102618390000002971090107471714724_);}
	.st21{fill:url(#SVGID_00000165940491184429967800000006132286087786221190_);}
</style>
<linearGradient id="SVGID_1_" gradientUnits="userSpaceOnUse" x1="3095.0276" y1="8845.3682" x2="3074.3289" y2="8832.4209" gradientTransform="matrix(-0.4616 0.8871 -0.8871 -0.4616 9633.7676 1671.6522)">
	<stop  offset="0.2378" style="stop-color:#758AB9"/>
	<stop  offset="1" style="stop-color:#696AAA"/>
</linearGradient>
<path class="st0" d="M357.35,331.17c0.3-0.57,0.76-1.07,1.36-1.42l16.71-9.53c1.67-0.95,3.8-0.37,4.76,1.3
	c0.95,1.67,0.37,3.8-1.3,4.76l-16.71,9.53c-1.67,0.95-3.8,0.37-4.76-1.3C356.81,333.44,356.83,332.19,357.35,331.17z"/>
<linearGradient id="SVGID_00000127737907589090745280000008481333998340384955_" gradientUnits="userSpaceOnUse" x1="3075.5042" y1="8832.7227" x2="3094.9282" y2="8845.7695" gradientTransform="matrix(-0.4616 0.8871 -0.8871 -0.4616 9633.7676 1671.6522)">
	<stop  offset="0.2378" style="stop-color:#807FB4"/>
	<stop  offset="0.5625" style="stop-color:#7388BE"/>
</linearGradient>
<path style="fill:url(#SVGID_00000127737907589090745280000008481333998340384955_);" d="M357.35,331.17
	c0.3-0.57,0.76-1.07,1.36-1.42l16.71-9.53c1.67-0.95,3.8-0.37,4.76,1.3c0.95,1.67,0.37,3.8-1.3,4.76l-16.71,9.53
	c-1.67,0.95-3.8,0.37-4.76-1.3C356.81,333.44,356.83,332.19,357.35,331.17z"/>
<linearGradient id="SVGID_00000065059823574988764960000000194355587739861679_" gradientUnits="userSpaceOnUse" x1="-657.7203" y1="1660.4755" x2="-636.4767" y2="1673.8387" gradientTransform="matrix(0.4616 0.8871 0.8871 -0.4616 -706.1678 1671.6522)">
	<stop  offset="0.051" style="stop-color:#749584"/>
	<stop  offset="0.9451" style="stop-color:#4AB267"/>
</linearGradient>
<path style="fill:url(#SVGID_00000065059823574988764960000000194355587739861679_);" d="M485.43,331.17
	c-0.3-0.57-0.76-1.07-1.36-1.42l-16.71-9.53c-1.67-0.95-3.8-0.37-4.76,1.3c-0.95,1.67-0.37,3.8,1.3,4.76l16.71,9.53
	c1.67,0.95,3.8,0.37,4.76-1.3C485.98,333.44,485.96,332.19,485.43,331.17z"/>
<linearGradient id="SVGID_00000115481874323055962950000010080289798268433581_" gradientUnits="userSpaceOnUse" x1="359.1294" y1="338.0577" x2="357.2261" y2="257.313">
	<stop  offset="0.0956" style="stop-color:#7388BE"/>
	<stop  offset="0.9274" style="stop-color:#965EA0"/>
</linearGradient>
<path style="fill:url(#SVGID_00000115481874323055962950000010080289798268433581_);" d="M358.18,338.08
	c-2.19,0-3.96-1.77-3.96-3.96v-72.87c0-2.19,1.77-3.96,3.96-3.96s3.96,1.77,3.96,3.96v72.87
	C362.14,336.31,360.36,338.08,358.18,338.08z"/>
<linearGradient id="SVGID_00000088109120644632738320000005958507536587016349_" gradientUnits="userSpaceOnUse" x1="484.431" y1="257.0732" x2="484.431" y2="337.8309">
	<stop  offset="0.0956" style="stop-color:#33B396"/>
	<stop  offset="0.9687" style="stop-color:#4AB267"/>
</linearGradient>
<path style="fill:url(#SVGID_00000088109120644632738320000005958507536587016349_);" d="M484.43,337.83
	c-2.19,0-3.96-1.77-3.96-3.96v-72.84c0-2.19,1.77-3.96,3.96-3.96s3.96,1.77,3.96,3.96v72.84
	C488.39,336.06,486.62,337.83,484.43,337.83z"/>
<linearGradient id="SVGID_00000161629023756491407670000012103995998503926705_" gradientUnits="userSpaceOnUse" x1="354.9207" y1="263.5236" x2="424.5639" y2="222.6695">
	<stop  offset="0.0877" style="stop-color:#965EA0"/>
	<stop  offset="0.8817" style="stop-color:#15A6DE"/>
</linearGradient>
<path style="fill:url(#SVGID_00000161629023756491407670000012103995998503926705_);" d="M358.18,265.21c-1.37,0-2.7-0.71-3.44-1.99
	c-1.09-1.9-0.44-4.32,1.46-5.41l63.13-36.31c1.9-1.09,4.32-0.44,5.41,1.46c1.09,1.9,0.44,4.32-1.46,5.41l-63.13,36.31
	C359.53,265.04,358.85,265.21,358.18,265.21z"/>
<linearGradient id="SVGID_00000150792520265751851530000006548216927817759163_" gradientUnits="userSpaceOnUse" x1="359.1497" y1="294.4204" x2="425.7037" y2="286.0936">
	<stop  offset="0.024" style="stop-color:#934B97;stop-opacity:0"/>
	<stop  offset="0.1123" style="stop-color:#8C4093"/>
</linearGradient>
<polygon style="fill:url(#SVGID_00000150792520265751851530000006548216927817759163_);" points="362.14,264.71 362.14,327.83 
	354.22,276 354.22,261.25 "/>
<linearGradient id="SVGID_00000029766936291201584150000006261133165219543168_" gradientUnits="userSpaceOnUse" x1="8444.1641" y1="294.4204" x2="8510.7178" y2="286.0936" gradientTransform="matrix(-1 0 0 1 8927.5996 0)">
	<stop  offset="6.918572e-03" style="stop-color:#5BB09D;stop-opacity:0"/>
	<stop  offset="0.0758" style="stop-color:#228E80"/>
</linearGradient>
<polygon style="fill:url(#SVGID_00000029766936291201584150000006261133165219543168_);" points="480.45,264.71 480.45,327.83 
	488.37,276 488.37,261.25 "/>
<linearGradient id="SVGID_00000061458438243909815280000017579426949413829027_" gradientUnits="userSpaceOnUse" x1="3648.9795" y1="-5268.4531" x2="3715.5334" y2="-5276.7798" gradientTransform="matrix(0.4966 0.868 0.868 -0.4966 3147.7568 -5537.751)">
	<stop  offset="0.024" style="stop-color:#934B97;stop-opacity:0"/>
	<stop  offset="0.1143" style="stop-color:#8C4092"/>
</linearGradient>
<polygon style="fill:url(#SVGID_00000061458438243909815280000017579426949413829027_);" points="362.73,263.2 417.52,231.85 
	368.6,250.72 355.8,258.04 "/>
<linearGradient id="SVGID_00000181807566133743694810000010075047651996328849_" gradientUnits="userSpaceOnUse" x1="418.8079" y1="221.4757" x2="486.93" y2="264.2141">
	<stop  offset="0.0576" style="stop-color:#15A6DE"/>
	<stop  offset="1" style="stop-color:#33B396"/>
</linearGradient>
<path style="fill:url(#SVGID_00000181807566133743694810000010075047651996328849_);" d="M484.43,264.71
	c-0.66,0-1.33-0.17-1.95-0.52l-63.12-35.81c-1.9-1.08-2.57-3.5-1.49-5.4s3.49-2.57,5.4-1.49l63.12,35.81c1.9,1.08,2.57,3.5,1.49,5.4
	C487.15,263.99,485.81,264.71,484.43,264.71z"/>
<linearGradient id="SVGID_00000178183997471517095060000006168912809471600558_" gradientUnits="userSpaceOnUse" x1="7683.8247" y1="1705.4314" x2="7750.3789" y2="1697.1046" gradientTransform="matrix(-0.4993 0.8664 -0.8664 -0.4993 5767.3818 -5561.8774)">
	<stop  offset="0.018" style="stop-color:#5BB09D;stop-opacity:0"/>
	<stop  offset="0.0758" style="stop-color:#228E80"/>
</linearGradient>
<polygon style="fill:url(#SVGID_00000178183997471517095060000006168912809471600558_);" points="477.56,261.6 422.87,230.09 
	471.73,249.1 484.51,256.47 "/>
<linearGradient id="SVGID_00000163791416549590012680000011030536589165009806_" gradientUnits="userSpaceOnUse" x1="424.7083" y1="299.166" x2="354.7764" y2="259.2225">
	<stop  offset="0.1978" style="stop-color:#11A7DF"/>
	<stop  offset="0.9274" style="stop-color:#965EA0"/>
</linearGradient>
<path style="fill:url(#SVGID_00000163791416549590012680000011030536589165009806_);" d="M421.3,301.1c-0.66,0-1.34-0.17-1.95-0.52
	l-63.13-35.89c-1.9-1.08-2.57-3.5-1.49-5.4c1.08-1.9,3.5-2.57,5.4-1.49l63.13,35.89c1.9,1.08,2.57,3.5,1.49,5.4
	C424.02,300.38,422.68,301.1,421.3,301.1z"/>
<linearGradient id="SVGID_00000167376069711408689170000000167292616084718985_" gradientUnits="userSpaceOnUse" x1="418.6764" y1="-2018.603" x2="487.0615" y2="-1975.6996" gradientTransform="matrix(1 0 0 -1 0 -1718.2086)">
	<stop  offset="0.0576" style="stop-color:#15A6DE"/>
	<stop  offset="1" style="stop-color:#33B396"/>
</linearGradient>
<path style="fill:url(#SVGID_00000167376069711408689170000000167292616084718985_);" d="M421.31,301.1c-1.37,0-2.7-0.71-3.43-1.98
	c-1.09-1.89-0.44-4.32,1.45-5.41l63.12-36.39c1.89-1.09,4.31-0.44,5.41,1.45c1.09,1.89,0.44,4.32-1.45,5.41l-63.12,36.39
	C422.66,300.93,421.98,301.1,421.31,301.1z"/>
<linearGradient id="SVGID_00000090993913212556655980000002466377219110430895_" gradientUnits="userSpaceOnUse" x1="354.8111" y1="332.0324" x2="424.6736" y2="372.6396">
	<stop  offset="0.0535" style="stop-color:#7388BE"/>
	<stop  offset="0.6103" style="stop-color:#31B39A"/>
	<stop  offset="1" style="stop-color:#31B39A"/>
</linearGradient>
<path style="fill:url(#SVGID_00000090993913212556655980000002466377219110430895_);" d="M421.3,374.51c-0.67,0-1.35-0.17-1.98-0.53
	l-63.13-36.43c-1.89-1.09-2.54-3.51-1.45-5.41c1.09-1.89,3.52-2.54,5.41-1.45l63.13,36.43c1.89,1.09,2.54,3.51,1.45,5.41
	C424,373.8,422.67,374.51,421.3,374.51z"/>
<linearGradient id="SVGID_00000121964283941823259020000007037686443238120832_" gradientUnits="userSpaceOnUse" x1="-648.9614" y1="1669.7347" x2="-640.1642" y2="1657.1274" gradientTransform="matrix(0.4616 0.8871 0.8871 -0.4616 -706.1678 1671.6522)">
	<stop  offset="0.2308" style="stop-color:#3EB171;stop-opacity:0"/>
	<stop  offset="0.4341" style="stop-color:#228147"/>
</linearGradient>
<path style="fill:url(#SVGID_00000121964283941823259020000007037686443238120832_);" d="M485.43,331.17
	c-0.3-0.57-0.76-1.07-1.36-1.42l-16.71-9.53c-1.67-0.95-3.8-0.37-4.76,1.3c-0.95,1.67-0.37,3.8,1.3,4.76l16.71,9.53
	c1.67,0.95,3.8,0.37,4.76-1.3C485.98,333.44,485.96,332.19,485.43,331.17z"/>
<linearGradient id="SVGID_00000085233611954849903180000017629202668331250339_" gradientUnits="userSpaceOnUse" x1="417.8053" y1="372.3062" x2="488.0151" y2="332.1901">
	<stop  offset="0" style="stop-color:#31B39A"/>
	<stop  offset="1" style="stop-color:#4AB267"/>
</linearGradient>
<path style="fill:url(#SVGID_00000085233611954849903180000017629202668331250339_);" d="M421.39,374.56c-1.37,0-2.7-0.71-3.43-1.98
	c-1.09-1.89-0.44-4.32,1.45-5.41l63.04-36.7c1.9-1.09,4.32-0.44,5.41,1.45s0.44,4.31-1.45,5.41l-63.04,36.7
	C422.75,374.39,422.07,374.56,421.39,374.56z"/>
<linearGradient id="SVGID_00000059285167608304221760000009942074493401566853_" gradientUnits="userSpaceOnUse" x1="5294.5601" y1="-5261.48" x2="5361.1138" y2="-5269.8066" gradientTransform="matrix(-0.5027 -0.8645 0.8645 -0.5027 7660.1172 2285.708)">
	<stop  offset="0.0152" style="stop-color:#63B287;stop-opacity:0"/>
	<stop  offset="0.0913" style="stop-color:#39988B"/>
</linearGradient>
<polygon style="fill:url(#SVGID_00000059285167608304221760000009942074493401566853_);" points="422.47,365.39 477.04,333.65 
	436.22,366.55 423.46,373.97 "/>
<linearGradient id="SVGID_00000165933965653574902600000011106097907231223951_" gradientUnits="userSpaceOnUse" x1="1230.2305" y1="1727.6462" x2="1296.7844" y2="1719.3193" gradientTransform="matrix(0.5027 -0.8645 -0.8645 -0.5027 1267.6364 2285.708)">
	<stop  offset="0.0152" style="stop-color:#63B287;stop-opacity:0"/>
	<stop  offset="0.0913" style="stop-color:#39988B"/>
</linearGradient>
<polygon style="fill:url(#SVGID_00000165933965653574902600000011106097907231223951_);" points="420.32,365.39 365.75,333.65 
	406.57,366.55 419.32,373.97 "/>
<linearGradient id="SVGID_00000144336774815629893060000003729808169239127178_" gradientUnits="userSpaceOnUse" x1="421.2966" y1="374.5592" x2="421.2966" y2="293.1783">
	<stop  offset="0.115" style="stop-color:#31B39A"/>
	<stop  offset="1" style="stop-color:#0AA8E0"/>
</linearGradient>
<path style="fill:url(#SVGID_00000144336774815629893060000003729808169239127178_);" d="M421.3,374.56c-2.19,0-3.96-1.77-3.96-3.96
	v-73.46c0-2.19,1.77-3.96,3.96-3.96c2.19,0,3.96,1.77,3.96,3.96v73.46C425.26,372.79,423.48,374.56,421.3,374.56z"/>
<g>
	<g>
		
			<linearGradient id="SVGID_00000052814119492918425570000004726626656376779191_" gradientUnits="userSpaceOnUse" x1="421.3701" y1="222.0565" x2="421.3701" y2="266.932">
			<stop  offset="0.2244" style="stop-color:#15A6DE"/>
			<stop  offset="1" style="stop-color:#4AB267"/>
		</linearGradient>
		<path style="fill:url(#SVGID_00000052814119492918425570000004726626656376779191_);" d="M425.29,244.85h-7.84
			c-0.06,0-0.1-0.05-0.1-0.1v-19.59c0-2.22,1.8-4.02,4.02-4.02l0,0c2.22,0,4.02,1.8,4.02,4.02v19.59
			C425.39,244.8,425.35,244.85,425.29,244.85z"/>
	</g>
</g>
<g>
	<g>
		
			<linearGradient id="SVGID_00000137095612708873064280000008088479053728055446_" gradientUnits="userSpaceOnUse" x1="421.3701" y1="226.2847" x2="421.3701" y2="267.227">
			<stop  offset="0.1983" style="stop-color:#15A6DE"/>
			<stop  offset="1" style="stop-color:#4AB267"/>
		</linearGradient>
		<path style="fill:url(#SVGID_00000137095612708873064280000008088479053728055446_);" d="M421.37,267.91L421.37,267.91
			c-2.22,0-4.02-1.8-4.02-4.02v-9.24c0-0.03,0.02-0.06,0.06-0.06h7.94c0.03,0,0.06,0.02,0.06,0.06v9.24
			C425.39,266.11,423.59,267.91,421.37,267.91z"/>
	</g>
</g>
<g>
	<g>
		
			<linearGradient id="SVGID_00000164504766585130035320000000941774804465341096_" gradientUnits="userSpaceOnUse" x1="430.4735" y1="223.3195" x2="430.4735" y2="266.5082">
			<stop  offset="0.1983" style="stop-color:#15A6DE"/>
			<stop  offset="1" style="stop-color:#4AB267"/>
		</linearGradient>
		<path style="fill:url(#SVGID_00000164504766585130035320000000941774804465341096_);" d="M435.38,254.59h-9.81
			c-0.1,0-0.18-0.08-0.18-0.18v-9.81c0-0.1,0.08-0.18,0.18-0.18h9.81c0.1,0,0.18,0.08,0.18,0.18v9.81
			C435.55,254.51,435.47,254.59,435.38,254.59z"/>
	</g>
</g>
</svg>
